<?xml version="1.0" encoding="UTF-8"?>
<svg version="1.1" xmlns="http://www.w3.org/2000/svg" width="102" height="102">
<path d="M0 0 C33.66 0 67.32 0 102 0 C102 33.66 102 67.32 102 102 C68.34 102 34.68 102 0 102 C0 68.34 0 34.68 0 0 Z " fill="#FCF7E5" transform="translate(0,0)"/>
<path d="M0 0 C2.28645078 1.46200939 3.89833991 2.64824233 5.125 5.1015625 C7.12249319 5.37866177 7.12249319 5.37866177 9.4375 5.4140625 C13.14604102 5.73294978 13.86114971 5.85058296 16.6875 8.5390625 C18.125 11.1015625 18.125 11.1015625 18.125 13.1015625 C19.07375 13.2046875 20.0225 13.3078125 21 13.4140625 C24.125 14.1015625 24.125 14.1015625 26.125 17.1015625 C26.20405064 19.43355638 26.21298769 21.76988872 26.125 24.1015625 C27.0221875 24.2253125 27.0221875 24.2253125 27.9375 24.3515625 C30.88724781 25.36290461 31.67453762 26.34568397 33.125 29.1015625 C33.66549644 34.0561132 33.2540373 37.1612933 30.125 41.1015625 C28.64 41.5965625 28.64 41.5965625 27.125 42.1015625 C27.351875 43.0090625 27.57875 43.9165625 27.8125 44.8515625 C28.125 48.1015625 28.125 48.1015625 26.6875 50.4765625 C26.171875 51.0128125 25.65625 51.5490625 25.125 52.1015625 C25.455 52.4315625 25.785 52.7615625 26.125 53.1015625 C26.53573188 56.71600301 26.40773228 58.61526298 24.5625 61.7890625 C21.65752386 64.5450655 18.83375334 65.65926954 15.125 67.1015625 C14.465 67.7615625 13.805 68.4215625 13.125 69.1015625 C10.5 69.2265625 10.5 69.2265625 8.125 69.1015625 C7.856875 69.6996875 7.58875 70.2978125 7.3125 70.9140625 C5.72367015 73.84085432 4.34739272 75.70594315 1.109375 76.75390625 C-4.93493734 77.52529576 -7.88807846 76.60301805 -12.875 73.1015625 C-13.205 73.4315625 -13.535 73.7615625 -13.875 74.1015625 C-21.02280293 74.57027089 -21.02280293 74.57027089 -24.375 72.7265625 C-25.875 71.1015625 -25.875 71.1015625 -25.875 69.1015625 C-26.761875 69.2046875 -27.64875 69.3078125 -28.5625 69.4140625 C-32.94717914 69.00041352 -33.8478224 67.20081575 -36.875 64.1015625 C-38.82884571 63.24076071 -38.82884571 63.24076071 -40.9375 62.6015625 C-44.89323359 61.24061068 -46.8727942 59.93912361 -48.875 56.1015625 C-49.33955215 52.33801686 -49.32233641 48.71319915 -48.3046875 45.046875 C-47.58776143 41.80115514 -48.81342154 39.17455277 -49.875 36.1015625 C-50.535 35.1115625 -51.195 34.1215625 -51.875 33.1015625 C-52.38083287 29.2235105 -52.16925666 27.56831445 -50.0625 24.2265625 C-47.875 22.1015625 -47.875 22.1015625 -44.875 22.1015625 C-44.978125 21.0496875 -45.08125 19.9978125 -45.1875 18.9140625 C-44.875 15.1015625 -44.875 15.1015625 -42.8125 12.1640625 C-39.22634537 9.64612414 -37.16607165 9.6808692 -32.875 10.1015625 C-32.606875 9.4828125 -32.33875 8.8640625 -32.0625 8.2265625 C-30.875 6.1015625 -30.875 6.1015625 -27.875 4.1015625 C-25.61328125 4.125 -25.61328125 4.125 -23.1875 4.4765625 C-21.97513672 4.64285156 -21.97513672 4.64285156 -20.73828125 4.8125 C-20.12339844 4.90789063 -19.50851563 5.00328125 -18.875 5.1015625 C-18.59785156 4.47894531 -18.32070313 3.85632813 -18.03515625 3.21484375 C-14.42657336 -3.35836617 -5.98230745 -2.86652232 0 0 Z " fill="#0C214E" transform="translate(60.875,12.8984375)"/>
<path d="M0 0 C4.14466437 1.83136332 6.9072833 4.73055663 10 8 C10.33 7.67 10.66 7.34 11 7 C14.4375 7.25 14.4375 7.25 18 8 C20 11 20 11 20 15 C20.94875 14.95875 21.8975 14.9175 22.875 14.875 C26 15 26 15 28 17 C28.125 20.625 28.125 20.625 28 24 C29.4540625 24.680625 29.4540625 24.680625 30.9375 25.375 C34 27 34 27 35 29 C35.58252427 36.22330097 35.58252427 36.22330097 33.125 39.5 C31 41 31 41 29 41 C29.495 44.465 29.495 44.465 30 48 C28.68 48.99 27.36 49.98 26 51 C26.66 51.66 27.32 52.32 28 53 C28.46879799 56.59411792 28.44361448 58.35164037 26.375 61.375 C23.3962104 63.4131192 21.53677664 63.32152515 18 63 C17.505 64.98 17.505 64.98 17 67 C14.03 66.505 14.03 66.505 11 66 C10.938125 66.7425 10.87625 67.485 10.8125 68.25 C9.71192872 71.97501049 8.32783116 73.0467078 5 75 C1.375 75.4375 1.375 75.4375 -2 75 C-3.7109375 73.47265625 -3.7109375 73.47265625 -5 72 C-4.05898438 71.33613281 -3.11796875 70.67226562 -2.1484375 69.98828125 C-0.8905333 69.0964835 0.36727403 68.2045491 1.625 67.3125 C2.24246094 66.87744141 2.85992187 66.44238281 3.49609375 65.99414062 C12.6654843 59.47904734 19.46240408 53.46702818 21.5859375 41.7734375 C22.07376928 31.85419126 18.87209987 22.95077926 15.55078125 13.74902344 C15 12 15 12 15 10 C1.14 10 -12.72 10 -27 10 C-26.67 9.01 -26.34 8.02 -26 7 C-23.22899606 5.61449803 -21.0665294 5.8122533 -18 6 C-17.01 6.66 -16.02 7.32 -15 8 C-14.6596875 7.13375 -14.6596875 7.13375 -14.3125 6.25 C-10.85273532 0.31897483 -6.47448566 -1.08127866 0 0 Z " fill="#0B7FD7" transform="translate(57,13)"/>
<path d="M0 0 C2.28645078 1.46200939 3.89833991 2.64824233 5.125 5.1015625 C7.12249319 5.37866177 7.12249319 5.37866177 9.4375 5.4140625 C13.14604102 5.73294978 13.86114971 5.85058296 16.6875 8.5390625 C18.125 11.1015625 18.125 11.1015625 18.125 13.1015625 C19.07375 13.2046875 20.0225 13.3078125 21 13.4140625 C24.125 14.1015625 24.125 14.1015625 26.125 17.1015625 C26.20405064 19.43355638 26.21298769 21.76988872 26.125 24.1015625 C27.0221875 24.2253125 27.0221875 24.2253125 27.9375 24.3515625 C30.88724781 25.36290461 31.67453762 26.34568397 33.125 29.1015625 C33.66549644 34.0561132 33.2540373 37.1612933 30.125 41.1015625 C28.64 41.5965625 28.64 41.5965625 27.125 42.1015625 C27.351875 43.0090625 27.57875 43.9165625 27.8125 44.8515625 C28.125 48.1015625 28.125 48.1015625 26.6875 50.4765625 C26.171875 51.0128125 25.65625 51.5490625 25.125 52.1015625 C25.455 52.4315625 25.785 52.7615625 26.125 53.1015625 C26.53573188 56.71600301 26.40773228 58.61526298 24.5625 61.7890625 C21.65752386 64.5450655 18.83375334 65.65926954 15.125 67.1015625 C14.465 67.7615625 13.805 68.4215625 13.125 69.1015625 C10.5 69.2265625 10.5 69.2265625 8.125 69.1015625 C7.856875 69.6996875 7.58875 70.2978125 7.3125 70.9140625 C5.72367015 73.84085432 4.34739272 75.70594315 1.109375 76.75390625 C-4.93493734 77.52529576 -7.88807846 76.60301805 -12.875 73.1015625 C-13.205 73.4315625 -13.535 73.7615625 -13.875 74.1015625 C-21.02280293 74.57027089 -21.02280293 74.57027089 -24.375 72.7265625 C-25.875 71.1015625 -25.875 71.1015625 -25.875 69.1015625 C-26.761875 69.2046875 -27.64875 69.3078125 -28.5625 69.4140625 C-32.94717914 69.00041352 -33.8478224 67.20081575 -36.875 64.1015625 C-38.82884571 63.24076071 -38.82884571 63.24076071 -40.9375 62.6015625 C-44.89323359 61.24061068 -46.8727942 59.93912361 -48.875 56.1015625 C-49.33955215 52.33801686 -49.32233641 48.71319915 -48.3046875 45.046875 C-47.58776143 41.80115514 -48.81342154 39.17455277 -49.875 36.1015625 C-50.535 35.1115625 -51.195 34.1215625 -51.875 33.1015625 C-52.38083287 29.2235105 -52.16925666 27.56831445 -50.0625 24.2265625 C-47.875 22.1015625 -47.875 22.1015625 -44.875 22.1015625 C-44.978125 21.0496875 -45.08125 19.9978125 -45.1875 18.9140625 C-44.875 15.1015625 -44.875 15.1015625 -42.8125 12.1640625 C-39.22634537 9.64612414 -37.16607165 9.6808692 -32.875 10.1015625 C-32.606875 9.4828125 -32.33875 8.8640625 -32.0625 8.2265625 C-30.875 6.1015625 -30.875 6.1015625 -27.875 4.1015625 C-25.61328125 4.125 -25.61328125 4.125 -23.1875 4.4765625 C-21.97513672 4.64285156 -21.97513672 4.64285156 -20.73828125 4.8125 C-20.12339844 4.90789063 -19.50851563 5.00328125 -18.875 5.1015625 C-18.59785156 4.47894531 -18.32070313 3.85632813 -18.03515625 3.21484375 C-14.42657336 -3.35836617 -5.98230745 -2.86652232 0 0 Z M-18.875 6.1015625 C-18.875 6.7615625 -18.875 7.4215625 -18.875 8.1015625 C-19.865 7.4415625 -20.855 6.7815625 -21.875 6.1015625 C-24.83269177 5.60145726 -24.83269177 5.60145726 -27.875 6.1015625 C-30.29359197 7.85222083 -30.29359197 7.85222083 -31.875 10.1015625 C-31.875 10.7615625 -31.875 11.4215625 -31.875 12.1015625 C-33.1125 11.9984375 -34.35 11.8953125 -35.625 11.7890625 C-39.05617839 11.79515696 -39.65686198 11.92066756 -42.4375 14.2265625 C-44.18006081 17.71168412 -43.90563371 19.40845838 -42.875 23.1015625 C-43.65875 23.2046875 -44.4425 23.3078125 -45.25 23.4140625 C-48.20545181 23.87751272 -48.20545181 23.87751272 -49.875 27.1015625 C-50.34540308 31.32295007 -50.34540308 31.32295007 -48.5 34.9765625 C-46.93033986 36.29129916 -46.93033986 36.29129916 -44.875 36.1015625 C-45.04 37.2153125 -45.205 38.3290625 -45.375 39.4765625 C-45.9205458 42.82188283 -45.9205458 42.82188283 -45.875 45.1015625 C-46.535 46.0915625 -47.195 47.0815625 -47.875 48.1015625 C-48.2031688 52.670682 -47.64723031 56.14763094 -44.75 59.7265625 C-41.04660623 61.49775082 -38.80721288 61.02678906 -34.875 60.1015625 C-34.75125 60.8853125 -34.6275 61.6690625 -34.5 62.4765625 C-34.08382007 65.24214072 -34.08382007 65.24214072 -31.875 67.1015625 C-28.27820934 66.77829697 -28.27820934 66.77829697 -24.875 66.1015625 C-24.771875 66.6996875 -24.66875 67.2978125 -24.5625 67.9140625 C-23.73030342 70.56196072 -23.23566896 71.60647216 -20.875 73.1015625 C-17.22958155 72.86679051 -17.22958155 72.86679051 -13.875 72.1015625 C-13.875 71.4415625 -13.875 70.7815625 -13.875 70.1015625 C-16.89103365 67.77978565 -19.97325133 65.60413431 -23.10351562 63.44140625 C-29.41047646 58.97423204 -33.75392348 54.32931865 -36.875 47.1015625 C-36.875 46.4415625 -36.875 45.7815625 -36.875 45.1015625 C-36.318125 46.2978125 -35.76125 47.4940625 -35.1875 48.7265625 C-33.20386089 52.72228 -30.85233792 55.79340926 -27.875 59.1015625 C-25.87724127 56.10492441 -24.88502585 53.56493624 -23.75 50.1640625 C-23.39679687 49.12378906 -23.04359375 48.08351562 -22.6796875 47.01171875 C-21.6973271 43.96223418 -21.6973271 43.96223418 -21.875 40.1015625 C-23.831136 38.37260971 -25.67156339 36.93463511 -27.8125 35.4765625 C-33.77141916 31.30872419 -33.77141916 31.30872419 -34.875 29.1015625 C-30.255 32.7315625 -25.635 36.3615625 -20.875 40.1015625 C-21.542312 44.10543452 -22.10699343 47.10606605 -23.4375 50.7890625 C-24.42262763 53.51819598 -24.875 55.15448937 -24.875 58.1015625 C-20.57354024 56.15448141 -17.10583601 53.26889587 -13.41015625 50.3671875 C-10.875 49.1015625 -10.875 49.1015625 -8.390625 49.671875 C-5.66038041 51.22353575 -3.1113407 52.8913972 -0.5625 54.7265625 C0.32050781 55.35820313 1.20351563 55.98984375 2.11328125 56.640625 C2.77714844 57.12273437 3.44101563 57.60484375 4.125 58.1015625 C5.48314777 54.0271192 4.07245762 51.28688134 2.6875 47.4140625 C2.44451172 46.71216797 2.20152344 46.01027344 1.95117188 45.28710938 C1.3505056 43.55577718 0.73880281 41.82828113 0.125 40.1015625 C0.785 40.1015625 1.445 40.1015625 2.125 40.1015625 C2.2796875 41.4628125 2.2796875 41.4628125 2.4375 42.8515625 C3.21043168 48.36438402 4.72067091 53.72271712 6.125 59.1015625 C0.93224056 57.15427771 -2.73365293 54.80620543 -6.8828125 51.11328125 C-8.87666538 49.82949994 -8.87666538 49.82949994 -11.25390625 50.67578125 C-14.2640108 52.31317046 -16.94221785 54.17586981 -19.6875 56.2265625 C-20.66332031 56.95101562 -21.63914062 57.67546875 -22.64453125 58.421875 C-23.38058594 58.97617188 -24.11664063 59.53046875 -24.875 60.1015625 C-20.98025609 64.2397279 -16.85347877 68.29113094 -11.875 71.1015625 C-8.96995303 71.16199901 -8.96995303 71.16199901 -6.875 70.1015625 C-6.875 70.7615625 -6.875 71.4215625 -6.875 72.1015625 C-7.865 72.5965625 -7.865 72.5965625 -8.875 73.1015625 C-5.1376144 75.5931529 -3.30168417 75.55949535 1.125 75.1015625 C4.45283116 73.1482703 5.83692872 72.07657299 6.9375 68.3515625 C6.999375 67.6090625 7.06125 66.8665625 7.125 66.1015625 C10.095 66.5965625 10.095 66.5965625 13.125 67.1015625 C13.62 65.1215625 13.62 65.1215625 14.125 63.1015625 C15.0325 63.1840625 15.94 63.2665625 16.875 63.3515625 C20.15484454 63.37155144 20.15484454 63.37155144 22.5 61.4765625 C24.56861448 58.45320287 24.59379799 56.69568042 24.125 53.1015625 C23.465 52.4415625 22.805 51.7815625 22.125 51.1015625 C23.445 50.1115625 24.765 49.1215625 26.125 48.1015625 C25.63 44.6365625 25.63 44.6365625 25.125 41.1015625 C25.929375 40.8128125 26.73375 40.5240625 27.5625 40.2265625 C30.2576468 39.36893682 30.2576468 39.36893682 31.125 37.1015625 C31.73681079 31.46836921 31.73681079 31.46836921 29.3125 26.6640625 C27.12117076 24.93690506 27.12117076 24.93690506 24.125 24.1015625 C24.16625 22.9878125 24.2075 21.8740625 24.25 20.7265625 C24.53621859 17.05790225 24.53621859 17.05790225 22.125 15.1015625 C19.04152174 14.93475141 19.04152174 14.93475141 16.125 15.1015625 C16.021875 14.1528125 15.91875 13.2040625 15.8125 12.2265625 C15.43960705 8.81048749 15.43960705 8.81048749 12.125 7.1015625 C9.32372957 6.89659149 7.65045768 6.83883366 5.125 8.1015625 C4.72667969 7.60785156 4.32835937 7.11414063 3.91796875 6.60546875 C3.38816406 5.96480469 2.85835937 5.32414062 2.3125 4.6640625 C1.52939453 3.70693359 1.52939453 3.70693359 0.73046875 2.73046875 C-1.79657097 0.16653794 -4.09435205 0.07597143 -7.625 -0.3359375 C-12.63413054 -0.308109 -15.7606558 2.34488481 -18.875 6.1015625 Z " fill="#153150" transform="translate(60.875,12.8984375)"/>
<path d="M0 0 C0.66 0 1.32 0 2 0 C3.65 4.62 5.3 9.24 7 14 C12.61 14.33 18.22 14.66 24 15 C21.23554753 17.76445247 18.84372312 19.98126971 15.75 22.25 C15.04359375 22.77078125 14.3371875 23.2915625 13.609375 23.828125 C13.07828125 24.21484375 12.5471875 24.6015625 12 25 C12.12117188 25.54527344 12.24234375 26.09054688 12.3671875 26.65234375 C14.18359375 34.82617187 14.18359375 34.82617187 16 43 C12.20159655 40.90700218 8.75830759 38.83908191 5.375 36.125 C3.704375 35.073125 3.704375 35.073125 2 34 C-1.90553428 35.03474575 -4.60391815 37.08065233 -7.6875 39.625 C-11.78571429 43 -11.78571429 43 -14 43 C-13.33461234 38.87459654 -12.01434744 35.16582268 -10.5234375 31.28125 C-9.85439806 28.3654363 -9.94286483 26.81312959 -11 24 C-13.50245291 21.70084025 -13.50245291 21.70084025 -16.5625 19.75 C-18.3851177 18.51479922 -20.20059269 17.26877484 -22 16 C-22 15.67 -22 15.34 -22 15 C-13.585 14.505 -13.585 14.505 -5 14 C-3.35 9.38 -1.7 4.76 0 0 Z " fill="#F6F2E1" transform="translate(50,28)"/>
<path d="M0 0 C1.20932455 3.62797364 0.35539885 5.02314534 -1.04760742 8.4453125 C-5.1912306 18.59463148 -7.41286075 29.04527186 -4.14453125 39.8203125 C0.07316736 48.31328923 8.40622142 53.46011862 16.09375 58.51953125 C16.7228125 59.00808594 17.351875 59.49664062 18 60 C18 60.66 18 61.32 18 62 C14.75 62.75 14.75 62.75 11 63 C8.5625 61.25 8.5625 61.25 7 59 C7 58.01 7 57.02 7 56 C5.906875 56.226875 4.81375 56.45375 3.6875 56.6875 C0 57 0 57 -1.9375 55.8125 C-3 54 -3 54 -3 50 C-4.051875 50.2475 -5.10375 50.495 -6.1875 50.75 C-10 51 -10 51 -12.875 49.625 C-15.82592532 45.97973931 -16.33208612 42.64069064 -16 38 C-14.5625 35.4375 -14.5625 35.4375 -13 34 C-13.33 33.67 -13.66 33.34 -14 33 C-13.71269945 30.66055264 -13.38063221 28.3260857 -13 26 C-13.639375 25.690625 -14.27875 25.38125 -14.9375 25.0625 C-17 24 -17 24 -18 23 C-18.40930274 19.3162753 -18.47354054 17.6205014 -16.1875 14.625 C-14 13 -14 13 -11 13 C-11.2475 12.113125 -11.495 11.22625 -11.75 10.3125 C-12 7 -12 7 -10.5625 4.125 C-6.89875485 1.08677231 -4.66282643 1.61143113 0 2 C0 1.34 0 0.68 0 0 Z " fill="#0B7ED5" transform="translate(29,23)"/>
<path d="M0 0 C4.14466437 1.83136332 6.9072833 4.73055663 10 8 C10.33 7.67 10.66 7.34 11 7 C14.4375 7.25 14.4375 7.25 18 8 C20 11 20 11 20 15 C20.94875 14.95875 21.8975 14.9175 22.875 14.875 C26 15 26 15 28 17 C28.125 20.625 28.125 20.625 28 24 C27.34 24 26.68 24 26 24 C25.34 25.32 24.68 26.64 24 28 C23.731875 27.360625 23.46375 26.72125 23.1875 26.0625 C22.11332248 23.66868314 22.11332248 23.66868314 19 23 C17.83203125 20.56640625 17.83203125 20.56640625 16.8125 17.5625 C16.46832031 16.57378906 16.12414062 15.58507812 15.76953125 14.56640625 C15 12 15 12 15 10 C1.14 10 -12.72 10 -27 10 C-26.67 9.01 -26.34 8.02 -26 7 C-23.22899606 5.61449803 -21.0665294 5.8122533 -18 6 C-17.01 6.66 -16.02 7.32 -15 8 C-14.6596875 7.13375 -14.6596875 7.13375 -14.3125 6.25 C-10.85273532 0.31897483 -6.47448566 -1.08127866 0 0 Z " fill="#1FA6E6" transform="translate(57,13)"/>
<path d="M0 0 C2.9485701 1.682313 5.63933914 3.54629099 8.359375 5.578125 C9.33519531 6.30257812 10.31101562 7.02703125 11.31640625 7.7734375 C12.05246094 8.32773438 12.78851563 8.88203125 13.546875 9.453125 C9.5353814 13.85282765 4.95854399 17.87798376 -0.453125 20.453125 C-4.57203997 20.34226393 -7.58482825 17.32632809 -10.703125 14.890625 C-11.25742187 14.46587891 -11.81171875 14.04113281 -12.3828125 13.60351562 C-13.74401911 12.55914159 -15.09918333 11.50690036 -16.453125 10.453125 C-13.65074157 7.54071728 -10.76094521 4.98836281 -7.515625 2.578125 C-6.68160156 1.94132812 -5.84757812 1.30453125 -4.98828125 0.6484375 C-2.453125 -0.546875 -2.453125 -0.546875 0 0 Z " fill="#3E2BAB" transform="translate(52.453125,63.546875)"/>
<path d="M0 0 C5.94 0 11.88 0 18 0 C16.28332616 5.96748526 14.46658376 11.24463789 12 17 C6.06 17 0.12 17 -6 17 C-4.39522868 10.73375008 -2.92022236 5.84044472 0 0 Z " fill="#452FAF" transform="translate(32,24)"/>
<path d="M0 0 C5.94 0 11.88 0 18 0 C21.05005028 6.29687799 22.08603709 9.68829676 23 17 C17.39 17 11.78 17 6 17 C1.125 5.625 1.125 5.625 0 0 Z " fill="#422EAD" transform="translate(52,24)"/>
<path d="M0 0 C1.41036511 4.23109534 -0.28994789 7.13954634 -1.8125 11.125 C-3.99810194 17.04616515 -5.86778009 22.77279047 -7 29 C-8.32 28.67 -9.64 28.34 -11 28 C-11 26.68 -11 25.36 -11 24 C-13.31 23.67 -15.62 23.34 -18 23 C-18.3327958 19.33924624 -18.46170299 17.60499012 -16.1875 14.625 C-14 13 -14 13 -11 13 C-11.2475 12.113125 -11.495 11.22625 -11.75 10.3125 C-12 7 -12 7 -10.5625 4.125 C-6.89875485 1.08677231 -4.66282643 1.61143113 0 2 C0 1.34 0 0.68 0 0 Z " fill="#1EA4E5" transform="translate(29,23)"/>
<path d="M0 0 C4.95 0 9.9 0 15 0 C15 0.33 15 0.66 15 1 C9.555 1.495 9.555 1.495 4 2 C7.63 4.97 11.26 7.94 15 11 C14.25251405 15.48491571 13.39620905 19.14003823 11.9375 23.375 C11.57527344 24.43460938 11.21304688 25.49421875 10.83984375 26.5859375 C10.56269531 27.38257812 10.28554688 28.17921875 10 29 C10.95261719 28.25492188 11.90523437 27.50984375 12.88671875 26.7421875 C14.1529225 25.78550022 15.41988996 24.82982315 16.6875 23.875 C17.31333984 23.38128906 17.93917969 22.88757813 18.58398438 22.37890625 C20.35313604 21.06362072 21.99791274 19.92404027 24 19 C28.01699188 19.71731998 31.02864316 22.26062308 34.3125 24.625 C35.19550781 25.25664063 36.07851563 25.88828125 36.98828125 26.5390625 C37.65214844 27.02117187 38.31601563 27.50328125 39 28 C38.79503906 27.27554688 38.59007812 26.55109375 38.37890625 25.8046875 C37.00945777 20.89039871 35.68467363 16.06658487 35 11 C35.66 11 36.32 11 37 11 C37.67736481 13.03814233 38.34143534 15.08070555 39 17.125 C39.37125 18.26195313 39.7425 19.39890625 40.125 20.5703125 C40.96911949 23.87895941 41.16509276 26.60528016 41 30 C35.6144328 29.33642118 32.62619741 26.62108073 28.5 23.30078125 C26.08172864 21.69970819 26.08172864 21.69970819 23.51953125 22.56640625 C20.78870215 24.12022684 18.23762223 25.788912 15.6875 27.625 C14.36298828 28.57246094 14.36298828 28.57246094 13.01171875 29.5390625 C12.34785156 30.02117187 11.68398438 30.50328125 11 31 C13.75118973 33.85215083 16.60315225 36.34358701 19.75 38.75 C20.54921875 39.36359375 21.3484375 39.9771875 22.171875 40.609375 C23.07679687 41.29773438 23.07679687 41.29773438 24 42 C22.73046875 43.48828125 22.73046875 43.48828125 21 45 C17.3125 45.1875 17.3125 45.1875 14 45 C14 44.67 14 44.34 14 44 C17.465 43.505 17.465 43.505 21 43 C21 42.34 21 41.68 21 41 C20.17628906 40.61908203 20.17628906 40.61908203 19.3359375 40.23046875 C9.70469177 35.15715369 1.242626 28.17252113 -3 18 C-3.29296875 14.3515625 -3.29296875 14.3515625 -3.1875 10.625 C-3.16042969 9.37976562 -3.13335938 8.13453125 -3.10546875 6.8515625 C-3.07066406 5.91054688 -3.03585938 4.96953125 -3 4 C-2.67 4 -2.34 4 -2 4 C-1.97421875 4.7734375 -1.9484375 5.546875 -1.921875 6.34375 C-1.38356109 16.22915088 0.85473167 21.31841459 7 29 C8.98 23.06 10.96 17.12 13 11 C11.68 10.34 10.36 9.68 9 9 C7.39028993 7.87000485 5.80736832 6.7011076 4.25 5.5 C3.45078125 4.8915625 2.6515625 4.283125 1.828125 3.65625 C1.22484375 3.1096875 0.6215625 2.563125 0 2 C0 1.34 0 0.68 0 0 Z " fill="#10224A" transform="translate(26,42)"/>
<path d="M0 0 C3.34708051 1.54841575 6.24667512 3.49105864 9.25 5.625 C10.14203125 6.25664063 11.0340625 6.88828125 11.953125 7.5390625 C12.96632813 8.26222656 12.96632813 8.26222656 14 9 C13.39297368 15.6772895 11.22368606 21.70127996 9 28 C-0.70349519 18.55876144 -0.70349519 18.55876144 -1.15625 11.59765625 C-1.20379961 7.54999572 -1.1284068 3.90880115 0 0 Z " fill="#402CAC" transform="translate(25,44)"/>
<path d="M0 0 C0.7985754 17.0362753 0.7985754 17.0362753 -4 23 C-6.75 25.5 -6.75 25.5 -9 27 C-11.46937673 20.7677635 -13.3186083 14.48707154 -15 8 C-14.43539062 7.90847656 -13.87078125 7.81695312 -13.2890625 7.72265625 C-10.41922197 6.81664857 -8.68731076 5.3515365 -6.375 3.4375 C-2.21126761 0 -2.21126761 0 0 0 Z " fill="#3A2AA6" transform="translate(77,44)"/>
<path d="M0 0 C3.17464698 1.48150193 5.81296351 3.2374276 8 6 C8 6.99 8 7.98 8 9 C0.41 9 -7.18 9 -15 9 C-13.98453449 4.93813796 -13.06666473 3.51886868 -9.8125 0.984375 C-6.40020671 -0.86885325 -3.83024281 -0.48638004 0 0 Z " fill="#21ABE8" transform="translate(57,13)"/>
<path d="M0 0 C0.99 0.66 1.98 1.32 3 2 C5.55135142 2.2435315 5.55135142 2.2435315 8.40234375 2.125 C9.98499023 2.10179687 9.98499023 2.10179687 11.59960938 2.078125 C13.82096568 2.02613304 16.04231986 1.97405003 18.26367188 1.921875 C19.32005859 1.90640625 20.37644531 1.8909375 21.46484375 1.875 C22.91298462 1.84019531 22.91298462 1.84019531 24.39038086 1.8046875 C27 2 27 2 31 4 C17.8 4 4.6 4 -9 4 C-8.67 3.01 -8.34 2.02 -8 1 C-5.22899606 -0.38550197 -3.0665294 -0.1877467 0 0 Z " fill="#198AC0" transform="translate(39,19)"/>
<path d="M0 0 C2.26897838 1.15072932 3.99340637 2.40501532 6 4 C5.34 4.66 4.68 5.32 4 6 C3.566875 5.525625 3.13375 5.05125 2.6875 4.5625 C-0.37459741 1.72722462 -3.87696818 1.61071563 -7.9296875 1.640625 C-11.6233571 2.28179029 -13.42218955 4.35931612 -16 7 C-16.33 7.66 -16.66 8.32 -17 9 C-19.97 8.01 -22.94 7.02 -26 6 C-26 5.67 -26 5.34 -26 5 C-23.03 5.33 -20.06 5.66 -17 6 C-16.34 4.68 -15.68 3.36 -15 2 C-10.03671828 -1.5106139 -5.68843258 -1.5412509 0 0 Z " fill="#203D57" transform="translate(59,12)"/>
<path d="M0 0 C0.515625 0.825 1.03125 1.65 1.5625 2.5 C2.7690625 3.7375 2.7690625 3.7375 4 5 C5.175625 5 6.35125 5 7.5625 5 C8.696875 5 9.83125 5 11 5 C13.38164192 7.84260487 14 9.28405267 14 13 C12 11.625 12 11.625 10 10 C10 9.34 10 8.68 10 8 C9.113125 8.103125 8.22625 8.20625 7.3125 8.3125 C2.94962112 7.90090765 1.87742826 6.18031545 -1 3 C-3.16620544 1.70480005 -3.16620544 1.70480005 -5 1 C-3.35 0.67 -1.7 0.34 0 0 Z " fill="#2D445F" transform="translate(25,74)"/>
<path d="M0 0 C2.475 0.99 2.475 0.99 5 2 C5 2.99 5 3.98 5 5 C2.9257235 6.73990668 0.92115074 8.24507485 -1.3125 9.75 C-1.90740234 10.17410156 -2.50230469 10.59820312 -3.11523438 11.03515625 C-4.86328125 12.234375 -4.86328125 12.234375 -8 14 C-8.99 13.67 -9.98 13.34 -11 13 C-7.04 10.03 -3.08 7.06 1 4 C0.67 2.68 0.34 1.36 0 0 Z " fill="#272190" transform="translate(60,70)"/>
<path d="M0 0 C0.66 0.66 1.32 1.32 2 2 C1.49339844 3.35931641 1.49339844 3.35931641 0.9765625 4.74609375 C-1.47490464 11.44157482 -3.66822473 17.97791219 -5 25 C-5.66 24.34 -6.32 23.68 -7 23 C-5.80135505 15.00903368 -2.81045952 7.54104214 0 0 Z " fill="#0B2C59" transform="translate(30,23)"/>
<path d="M0 0 C0.33 0 0.66 0 1 0 C1.02578125 0.7734375 1.0515625 1.546875 1.078125 2.34375 C1.59436837 11.82385548 3.72853935 17.8326164 10 25 C9.67 25.66 9.34 26.32 9 27 C8.05441313 25.96566873 7.11897416 24.92205854 6.1875 23.875 C5.66542969 23.29492188 5.14335937 22.71484375 4.60546875 22.1171875 C0.71897909 16.99193836 -0.36904933 13.03974292 -0.1875 6.625 C-0.16042969 5.37976562 -0.13335938 4.13453125 -0.10546875 2.8515625 C-0.07066406 1.91054688 -0.03585938 0.96953125 0 0 Z " fill="#041E48" transform="translate(23,46)"/>
<path d="M0 0 C0.33 0 0.66 0 1 0 C1.0825 1.093125 1.165 2.18625 1.25 3.3125 C1.63689209 7.03276664 1.63689209 7.03276664 4.0625 8.9375 C4.701875 9.288125 5.34125 9.63875 6 10 C5.67 11.98 5.34 13.96 5 16 C4.34 15.01 3.68 14.02 3 13 C2.29875 12.071875 1.5975 11.14375 0.875 10.1875 C-1.16778002 6.71477397 -1.45929138 4.94990584 -1 1 C-0.67 0.67 -0.34 0.34 0 0 Z " fill="#1B3A5A" transform="translate(10,39)"/>
<path d="M0 0 C0.66 0.99 1.32 1.98 2 3 C-1.63 3.33 -5.26 3.66 -9 4 C-8.67 3.01 -8.34 2.02 -8 1 C-5.21136993 -0.39431504 -3.07921132 -0.25660094 0 0 Z " fill="#24B0E4" transform="translate(39,19)"/>
<path d="M0 0 C-1.22053859 3.66161578 -2.36782304 4.16270474 -5.5625 6.1875 C-6.38878906 6.71730469 -7.21507813 7.24710938 -8.06640625 7.79296875 C-8.70449219 8.19128906 -9.34257813 8.58960938 -10 9 C-8.22001491 4.99503355 -4.82420328 0 0 0 Z " fill="#16264C" transform="translate(74,44)"/>
<path d="M0 0 C0.94875 0.04125 1.8975 0.0825 2.875 0.125 C-0.125 2.125 -0.125 2.125 -2.1875 2.5 C-4.33168205 2.95823057 -4.33168205 2.95823057 -5.375 5.1875 C-5.6225 5.826875 -5.87 6.46625 -6.125 7.125 C-5.03177966 0.20127119 -5.03177966 0.20127119 0 0 Z " fill="#26B5E8" transform="translate(24.125,24.875)"/>
<path d="M0 0 C2.31 0 4.62 0 7 0 C5.60203108 2.79593783 3.86525011 2.95173777 1 4 C0.01 4.495 0.01 4.495 -1 5 C-0.67 3.35 -0.34 1.7 0 0 Z " fill="#102F56" transform="translate(75,76)"/>
<path d="M0 0 C3.14737182 0.69941596 6.02588876 1.76078698 9 3 C9 3.66 9 4.32 9 5 C4.68607774 4.5206753 2.83430453 3.2542015 0 0 Z " fill="#1A2A50" transform="translate(58,67)"/>
</svg>
